<?xml version="1.0" encoding="UTF-8"?>
<svg version="1.1" xmlns="http://www.w3.org/2000/svg" width="668" height="681">
<path d="M0 0 C1.95741346 -0.00346293 3.91482496 -0.00823174 5.87223244 -0.01418173 C11.21378281 -0.02663407 16.55517111 -0.02054773 21.89672184 -0.01122308 C27.67186103 -0.00440918 33.44697319 -0.01492539 39.22210693 -0.02316284 C50.52089656 -0.03647744 61.81962628 -0.03363256 73.11841822 -0.02492492 C82.30414985 -0.01813983 91.48986473 -0.01723522 100.67559814 -0.02049637 C101.98475618 -0.02095607 103.29391422 -0.02141577 104.64274371 -0.0218894 C107.30257273 -0.02284861 109.96240175 -0.02382125 112.62223077 -0.02480717 C136.83244809 -0.03341173 161.04263519 -0.02451097 185.25284734 -0.00877938 C207.32857585 0.00545621 229.40425242 0.00418227 251.47998047 -0.01016235 C276.31311284 -0.02624499 301.1462161 -0.0325305 325.97935295 -0.02332556 C328.62919998 -0.02236995 331.27904701 -0.02142684 333.92889404 -0.02049637 C335.23254681 -0.02003354 336.53619958 -0.01957072 337.87935698 -0.01909386 C347.05021401 -0.01650751 356.22105257 -0.02086732 365.39190674 -0.02793503 C376.57359609 -0.03636329 387.75522228 -0.03404197 398.93690443 -0.0180928 C404.63800245 -0.01022799 410.33899531 -0.00708795 416.04009247 -0.01704025 C421.26594656 -0.02602472 426.49159869 -0.02099275 431.71743464 -0.0051076 C433.60081877 -0.00177563 435.48422019 -0.00341784 437.36759305 -0.01073496 C448.41926621 -0.05035501 458.54979413 0.69674556 469.30224609 3.38095093 C470.05483389 3.56762569 470.80742168 3.75430045 471.58281517 3.94663203 C499.70831289 11.54513796 522.8861642 31.19387084 537.46240234 56.01376343 C548.53292235 75.49583328 551.76668595 95.47524733 551.68319702 117.57223511 C551.68665965 119.5832709 551.69142825 121.59430479 551.69737875 123.60533476 C551.70983527 129.0951041 551.70374281 134.58471583 551.6944201 140.07448554 C551.68760794 146.00913514 551.69812155 151.94375841 551.70635986 157.87840271 C551.71890788 168.81997229 551.71785033 179.76148812 551.70962546 190.70306052 C551.70206357 200.81293537 551.70011577 210.92279197 551.70369339 221.03266907 C551.70403712 222.04058344 551.70403712 222.04058344 551.7043878 223.06885972 C551.70532189 225.79684474 551.7062771 228.52482975 551.70726709 231.25281475 C551.71643358 256.81676842 551.70814041 282.38069037 551.6919764 307.94463914 C551.67774075 330.63127178 551.67901468 353.31785389 551.69335938 376.00448608 C551.70944105 401.52320839 551.71578336 427.0419027 551.70652258 452.56062937 C551.70556051 455.28349717 551.70462198 458.00636498 551.70369339 460.72923279 C551.70333754 461.73481094 551.70333754 461.73481094 551.7029745 462.7607038 C551.69956942 472.86149843 551.7035392 482.96227276 551.71113205 493.06306458 C551.71955925 504.55400472 551.71724121 516.04488341 551.70128982 527.53581655 C551.69342359 533.39488441 551.69028742 539.25384992 551.70023727 545.11291695 C551.70921876 550.48310208 551.70419459 555.85309062 551.68830462 561.22325808 C551.68497141 563.15913181 551.68661772 565.09502237 551.69393198 567.03088516 C551.73294853 578.22147346 551.03540045 588.49586907 548.30224609 599.38095093 C548.11557133 600.13290253 547.92889657 600.88485414 547.73656499 601.65959215 C540.11615608 629.89527508 520.47645762 652.89439139 495.60302734 667.60751343 C476.36312767 678.55782825 456.43613649 681.84672027 434.60449219 681.76190186 C432.64707873 681.76536479 430.68966723 681.77013359 428.73225975 681.77608359 C423.39070938 681.78853593 418.04932108 681.78244958 412.70777035 681.77312493 C406.93263116 681.76631104 401.157519 681.77682724 395.38238525 681.7850647 C384.08359563 681.7983793 372.78486591 681.79553442 361.48607397 681.78682677 C352.30034234 681.78004169 343.11462746 681.77913708 333.92889404 681.78239822 C331.96515699 681.78308777 331.96515699 681.78308777 329.96174848 681.78379125 C327.30191946 681.78475046 324.64209043 681.7857231 321.98226142 681.78670903 C297.7720441 681.79531358 273.561857 681.78641283 249.35164484 681.77068123 C227.27591634 681.75644565 205.20023977 681.75771958 183.12451172 681.77206421 C158.29137935 681.78814685 133.45827609 681.79443235 108.62513924 681.78522742 C105.97529221 681.78427181 103.32544518 681.78332869 100.67559814 681.78239822 C99.37194538 681.7819354 98.06829261 681.78147257 96.72513521 681.78099572 C87.55427818 681.77840937 78.38343962 681.78276918 69.21258545 681.78983688 C58.0308961 681.79826515 46.8492699 681.79594382 35.66758776 681.77999465 C29.96648974 681.77212984 24.26549688 681.76898981 18.56439972 681.77894211 C13.33854563 681.78792658 8.11289349 681.7828946 2.88705754 681.76700945 C1.00367342 681.76367749 -0.87972801 681.7653197 -2.76310086 681.77263682 C-13.81477402 681.81225687 -23.94530194 681.0651563 -34.69775391 678.38095093 C-35.4503417 678.19427616 -36.2029295 678.0076014 -36.97832298 677.81526983 C-65.14787865 670.20486101 -88.09118184 650.59422245 -102.82275391 625.85360718 C-106.63338955 619.21736778 -109.61311334 612.43908784 -112.07275391 605.19345093 C-112.31147217 604.49389282 -112.55019043 603.79433472 -112.79614258 603.07357788 C-116.86450694 590.35350197 -116.98669729 577.75779499 -116.95845032 564.5504303 C-116.96147417 562.54198481 -116.96536482 560.53354047 -116.97004288 558.52509815 C-116.98030147 553.02858313 -116.97814651 547.5321335 -116.97386229 542.03561318 C-116.97139118 536.09886929 -116.98041401 530.16214098 -116.98789978 524.22540283 C-117.00063809 512.60336431 -117.00244734 500.98134748 -117.00009952 489.35930332 C-116.99826423 479.91082118 -117.00003141 470.46234581 -117.00432396 461.01386452 C-117.00492637 459.65462795 -117.00552757 458.29539138 -117.00612756 456.93615482 C-117.00703485 454.8877139 -117.00794352 452.83927298 -117.00885991 450.79083207 C-117.01728502 431.75449151 -117.02162819 412.7181535 -117.01745319 393.68181133 C-117.01729682 392.96472885 -117.01714044 392.24764638 -117.01697933 391.50883413 C-117.01617359 387.87468398 -117.01532782 384.24053384 -117.01446602 380.6063837 C-117.01420939 379.52382533 -117.01420939 379.52382533 -117.01394758 378.4193971 C-117.01360092 376.95993453 -117.01325239 375.50047195 -117.01290199 374.04100938 C-117.0075455 351.33472779 -117.01547498 328.62848504 -117.03393555 305.92221069 C-117.05467015 280.3892299 -117.06537549 254.85627317 -117.06136006 229.32328349 C-117.06096474 226.59868388 -117.06060319 223.87408426 -117.06026268 221.14948463 C-117.06017195 220.4786597 -117.06008122 219.80783477 -117.05998774 219.1166818 C-117.05882375 209.00795541 -117.06545485 198.89925338 -117.0760746 188.79053307 C-117.08799491 177.28854489 -117.08938594 165.78661387 -117.07728443 154.2846249 C-117.07140038 148.41949931 -117.07028334 142.55447826 -117.08228683 136.68935966 C-117.09316089 131.31350814 -117.09002404 125.93784824 -117.07602515 120.56200562 C-117.07338244 118.62402151 -117.07573127 116.68602231 -117.08376101 114.74805304 C-117.12691151 103.55075089 -116.43401762 93.27237028 -113.69775391 82.38095093 C-113.51107047 81.62902535 -113.32438703 80.87709977 -113.13204652 80.10238856 C-105.51236064 51.8667232 -85.87158974 28.86728824 -60.99853516 14.15438843 C-41.75863548 3.2040736 -21.8316443 -0.08481842 0 0 Z " fill="#FEFEFE" transform="translate(116.69775390625,-0.380950927734375)"/>
<path d="M0 0 C2.52560945 1.18559181 3.27588466 2.40696538 4.66796875 4.8046875 C5.08433594 5.50335938 5.50070312 6.20203125 5.9296875 6.921875 C8.08584735 11.04182356 9.3129867 15.38551415 7.98046875 19.9296875 C5.25909103 22.7354006 2.03696319 24.54804356 -1.33203125 26.4921875 C-2.70186157 27.33015869 -2.70186157 27.33015869 -4.09936523 28.18505859 C-5.90871871 29.2899263 -7.72510374 30.3833735 -9.54882812 31.46435547 C-12.59757598 33.27251601 -15.59182482 35.15146152 -18.58203125 37.0546875 C-19.38769531 37.55226562 -20.19335938 38.04984375 -21.0234375 38.5625 C-22.92992257 39.86831169 -24.45298803 41.23802102 -26.01953125 42.9296875 C-17.60481091 40.44855917 -9.42775679 37.96425029 -1.546875 34.04296875 C1.51066935 32.696137 4.76798095 31.84754116 7.98046875 30.9296875 C7.98046875 36.8696875 7.98046875 42.8096875 7.98046875 48.9296875 C-2.53297615 54.76920794 -12.82945229 59.96311311 -24.28515625 63.67578125 C-27.99775933 64.86068428 -27.99775933 64.86068428 -31.37890625 66.40234375 C-35.83600266 68.27222004 -40.37458 69.61190455 -45.01953125 70.9296875 C-41.72717465 70.4762274 -38.43579646 70.01599691 -35.14453125 69.5546875 C-34.22671875 69.42835938 -33.30890625 69.30203125 -32.36328125 69.171875 C-20.70267844 67.53902254 -20.70267844 67.53902254 -9.39453125 64.3671875 C-5.25794925 62.90721738 -1.38305556 62.32637153 2.98046875 61.9296875 C2.45778409 64.69244927 1.87177288 67.2557751 0.98046875 69.9296875 C0.32046875 69.9296875 -0.33953125 69.9296875 -1.01953125 69.9296875 C-1.35984375 71.0125 -1.35984375 71.0125 -1.70703125 72.1171875 C-5.17229308 79.54274857 -11.80484348 82.12548576 -18.89453125 85.4296875 C-19.84328125 85.88988281 -20.79203125 86.35007812 -21.76953125 86.82421875 C-34.36147209 92.78440408 -46.76967729 96.47981215 -60.4934082 98.44311523 C-62.61448347 98.74683437 -64.73191265 99.07010623 -66.84960938 99.39648438 C-72.6030991 100.26222442 -78.18383172 101.06053278 -84.01953125 100.9296875 C-84.01953125 101.5896875 -84.01953125 102.2496875 -84.01953125 102.9296875 C-64.34954246 102.40241091 -45.81766963 100.84878935 -26.55078125 96.83203125 C-22.71920412 96.04426802 -18.89799556 95.4353475 -15.01953125 94.9296875 C-20.8722369 117.04644453 -33.83421289 140.75061795 -54.01953125 152.9296875 C-57.12411131 154.33063817 -60.29753709 155.45523926 -63.51953125 156.5546875 C-65.1555617 157.12846121 -66.79098965 157.70395602 -68.42578125 158.28125 C-69.21138428 158.55638428 -69.9969873 158.83151855 -70.80639648 159.11499023 C-72.76265806 159.83512756 -74.67885871 160.66211791 -76.5859375 161.50390625 C-80.49057609 163.12528632 -84.35159244 164.15186474 -88.45703125 165.1171875 C-89.18857422 165.29443359 -89.92011719 165.47167969 -90.67382812 165.65429688 C-92.4544154 166.08489641 -94.23679351 166.50807966 -96.01953125 166.9296875 C-95.43163818 166.84928223 -94.84374512 166.76887695 -94.23803711 166.68603516 C-82.50104533 165.08142643 -70.76322915 163.48453847 -59.01953125 161.9296875 C-62.66594141 165.02389977 -66.73437408 166.74272505 -71.08203125 168.6171875 C-72.16194336 169.09768555 -72.16194336 169.09768555 -73.26367188 169.58789062 C-76.3273954 170.92204692 -78.6423113 171.9296875 -82.01953125 171.9296875 C-82.01953125 172.5896875 -82.01953125 173.2496875 -82.01953125 173.9296875 C-84.0800298 174.74724988 -86.14301978 175.55853484 -88.20703125 176.3671875 C-89.35558594 176.81964844 -90.50414062 177.27210938 -91.6875 177.73828125 C-94.49076358 178.74062051 -97.09065701 179.44981545 -100.01953125 179.9296875 C-98.89675781 179.7853125 -97.77398437 179.6409375 -96.6171875 179.4921875 C-89.04904366 178.54458596 -81.66254378 177.65175977 -74.01953125 177.9296875 C-80.17026027 192.8137721 -102.5901322 202.58575865 -116.21044922 209.05224609 C-118.76870369 210.2930513 -121.26067328 211.65483564 -123.76953125 212.9921875 C-133.75223895 217.99721629 -144.64026507 221.35894244 -155.33203125 224.51171875 C-158.61413334 225.48342318 -161.7569802 226.55054418 -164.89453125 227.9296875 C-175.20875887 232.1569524 -186.26061438 233.78225418 -197.20703125 235.5546875 C-198.50833984 235.77125 -199.80964844 235.9878125 -201.15039062 236.2109375 C-211.65175186 237.93718866 -221.76278441 239.06540268 -232.40625 239.17578125 C-234.58268675 239.20869072 -236.75911895 239.2419028 -238.93554688 239.27539062 C-242.33240943 239.3229078 -245.72924979 239.36744292 -249.1262207 239.40649414 C-252.42807534 239.44623538 -255.72958602 239.49773572 -259.03125 239.55078125 C-260.04386398 239.5591954 -261.05647797 239.56760956 -262.09977722 239.57627869 C-267.14764694 239.66456599 -271.28081225 239.99950514 -276.01953125 241.9296875 C-278.30495006 242.49713773 -280.59690305 243.03889341 -282.89453125 243.5546875 C-284.04695312 243.81507813 -285.199375 244.07546875 -286.38671875 244.34375 C-287.25554687 244.53710938 -288.124375 244.73046875 -289.01953125 244.9296875 C-288.37483887 244.86040039 -287.73014648 244.79111328 -287.06591797 244.71972656 C-267.81661456 242.79308213 -245.64368109 241.72163755 -227.01953125 247.9296875 C-210.57035589 250.63229035 -193.37853911 249.06260098 -176.89453125 247.4921875 C-176.1842276 247.4247937 -175.47392395 247.3573999 -174.74209595 247.28796387 C-167.24490877 246.70957746 -167.24490877 246.70957746 -159.87158203 245.38647461 C-157.77637581 244.869716 -155.92374994 244.83128386 -153.76953125 244.8671875 C-151.91328125 244.898125 -151.91328125 244.898125 -150.01953125 244.9296875 C-154.27513754 253.93830861 -158.3584427 262.41824722 -165.01953125 269.9296875 C-165.70789063 270.73664063 -166.39625 271.54359375 -167.10546875 272.375 C-182.02239516 289.4902103 -198.95708653 298.92097914 -220.37890625 305.62109375 C-223.05152215 306.58174432 -225.28847248 307.54126925 -227.76953125 308.84765625 C-232.73523642 311.40798537 -237.94779013 313.02197937 -243.26953125 314.6796875 C-244.24921875 314.99550781 -245.22890625 315.31132812 -246.23828125 315.63671875 C-250.40601019 316.95194469 -253.60680695 317.9296875 -258.01953125 317.9296875 C-258.01953125 318.5896875 -258.01953125 319.2496875 -258.01953125 319.9296875 C-258.65117187 320.03925781 -259.2828125 320.14882813 -259.93359375 320.26171875 C-265.09039323 321.17567601 -270.1968594 322.19245079 -275.30078125 323.3671875 C-283.77111911 325.19343301 -292.28870918 326.17045542 -300.89453125 327.1171875 C-302.46882199 327.2955898 -304.04304138 327.47462293 -305.6171875 327.65429688 C-309.41718889 328.08667349 -313.21804141 328.51060798 -317.01953125 328.9296875 C-310.30180959 329.05883165 -303.58441898 329.14499326 -296.86572266 329.2043457 C-294.59086148 329.2291455 -292.31607689 329.26299647 -290.04150391 329.30688477 C-270.99128656 329.66465509 -252.5312025 328.24286202 -235.1640625 319.75 C-233.01953125 318.9296875 -233.01953125 318.9296875 -230.01953125 319.9296875 C-237.66200621 325.285952 -245.71219893 329.92390731 -253.77001953 334.61523438 C-255.94037441 335.88343393 -258.10417803 337.16200043 -260.265625 338.4453125 C-269.73737498 344.06461457 -279.29850803 349.49994181 -288.95507812 354.79541016 C-290.87087222 355.84800942 -292.78159151 356.9092605 -294.69140625 357.97265625 C-300.18323627 360.99574108 -305.60174235 363.70574702 -311.46875 365.9140625 C-314.33291664 367.05446576 -317.06136906 368.39064497 -319.83203125 369.7421875 C-336.95002819 377.72383341 -355.19156828 382.37191446 -373.86743164 384.75292969 C-378.60642043 385.3963039 -382.75049904 386.42442016 -387.18188477 388.22070312 C-390.79221397 389.61360814 -394.60916556 390.2741927 -398.3828125 391.0859375 C-401.09494557 391.95382008 -402.24629023 392.75096134 -404.01953125 394.9296875 C-403.17132813 394.73632812 -402.323125 394.54296875 -401.44921875 394.34375 C-400.27617187 394.08335937 -399.103125 393.82296875 -397.89453125 393.5546875 C-396.18910156 393.17183594 -396.18910156 393.17183594 -394.44921875 392.78125 C-382.32815494 390.34271008 -370.3484277 389.58795046 -358.02319336 389.39794922 C-356.01271646 389.36399088 -354.00243866 389.31883345 -351.9921875 389.2734375 C-350.81922119 389.25474609 -349.64625488 389.23605469 -348.43774414 389.21679688 C-333.23809423 387.94011747 -316.75560407 379.77069385 -303.47924805 372.63647461 C-301.6857874 371.68272796 -299.8555879 370.79861198 -298.01953125 369.9296875 C-297.35953125 370.2596875 -296.69953125 370.5896875 -296.01953125 370.9296875 C-307.13357866 381.71242184 -320.49179933 389.56146142 -334.01953125 396.9296875 C-335.27443359 397.61998047 -335.27443359 397.61998047 -336.5546875 398.32421875 C-348.68770768 404.70468846 -362.03762258 408.68937251 -375.10296631 412.68460083 C-389.95958141 417.23400953 -404.6031886 422.11305504 -419.01953125 427.9296875 C-419.01953125 428.5896875 -419.01953125 429.2496875 -419.01953125 429.9296875 C-424.62953125 429.9296875 -430.23953125 429.9296875 -436.01953125 429.9296875 C-432.13794765 414.40335312 -420.23287728 399.44574369 -412.01953125 385.9296875 C-411.22103546 384.60696317 -410.42279926 383.28408205 -409.625 381.9609375 C-405.06180978 374.45165501 -400.221827 367.14565838 -395.31494141 359.85888672 C-394.00555111 357.90886748 -392.70455849 355.95350614 -391.40625 353.99609375 C-384.19210587 343.12043118 -376.72364716 332.46499795 -369.01953125 321.9296875 C-368.19891719 320.79709343 -367.37861841 319.66427088 -366.55859375 318.53125 C-354.95143014 302.53757016 -342.68385295 287.0963571 -330.01953125 271.9296875 C-329.52324219 271.33285156 -329.02695312 270.73601562 -328.515625 270.12109375 C-322.69029482 263.12117384 -316.69802353 256.31586513 -310.5078125 249.63671875 C-308.44509091 247.39265899 -306.43834809 245.12009055 -304.45703125 242.8046875 C-300.9762032 238.78128433 -297.19287904 235.08898322 -293.41015625 231.3515625 C-291.43409744 229.34967286 -289.58471933 227.32490977 -287.76953125 225.1796875 C-280.50996615 216.71306882 -272.38368614 208.76885486 -263.875 201.56640625 C-261.65789541 199.61068662 -259.59577213 197.5341286 -257.51953125 195.4296875 C-253.51205729 191.38139037 -249.35325729 187.62271318 -245.01953125 183.9296875 C-243.94356815 183.00181468 -242.86808779 182.07338193 -241.79296875 181.14453125 C-214.81494918 157.8723041 -186.57306369 136.24127106 -156.33203125 117.37792969 C-140.52206307 107.47667005 -124.93999827 97.13780206 -109.92578125 86.0625 C-107.62430022 84.37350989 -105.31194121 82.70494786 -102.98828125 81.046875 C-94.27224121 74.81717189 -85.71589151 68.43119403 -77.2878418 61.81665039 C-73.33228428 58.71552465 -69.35444711 55.67280064 -65.26953125 52.7421875 C-59.30322117 48.46101843 -53.56637893 43.90522382 -47.81347656 39.34423828 C-46.06448751 37.96513613 -44.30587504 36.59953159 -42.54296875 35.23828125 C-21.78440824 19.44679172 -21.78440824 19.44679172 -3.44140625 1.0625 C-2.01953125 -0.0703125 -2.01953125 -0.0703125 0 0 Z " fill="#030204" transform="translate(575.01953125,88.0703125)"/>
<path d="M0 0 C-0.33 0.99 -0.66 1.98 -1 3 C-1.66 3 -2.32 3 -3 3 C-3.24492188 3.845625 -3.48984375 4.69125 -3.7421875 5.5625 C-5.12656754 9.34589887 -7.00292388 12.60207444 -9.125 16 C-9.92969061 17.31300307 -10.73304291 18.62682714 -11.53515625 19.94140625 C-11.94266113 20.6080127 -12.35016602 21.27461914 -12.77001953 21.96142578 C-14.75704841 25.25473486 -16.66295106 28.59318717 -18.5625 31.9375 C-18.90877441 32.54658203 -19.25504883 33.15566406 -19.61181641 33.78320312 C-20.40926392 35.18801604 -21.20485967 36.59387991 -22 38 C-18.29097792 35.13671188 -14.95895807 32.07571361 -11.65625 28.75390625 C-11.16467407 28.26091537 -10.67309814 27.7679245 -10.16662598 27.25999451 C-8.60869807 25.6965167 -7.05429004 24.12959348 -5.5 22.5625 C-4.45726517 21.51474111 -3.41429838 20.46721301 -2.37109375 19.41992188 C-0.44582027 17.48652899 1.47781889 15.55156299 3.40039062 13.61547852 C5.92855927 11.07187684 8.46282036 8.53460585 11 6 C9.40756778 10.66099543 6.88158891 14.40709376 4.125 18.4375 C3.69058594 19.08009766 3.25617188 19.72269531 2.80859375 20.38476562 C1.95259911 21.6507637 1.09489644 22.91560887 0.23535156 24.17919922 C-1.52606868 26.77537948 -3.26346646 29.38712279 -5 32 C1.84165038 28.36894479 8.27370646 24.27313248 14.6875 19.9375 C15.59822266 19.32583984 16.50894531 18.71417969 17.44726562 18.08398438 C19.19283756 16.91139611 20.93752033 15.7374827 22.68115234 14.56201172 C25.44776533 12.69837834 28.22236425 10.84715081 31 9 C31.66 9.33 32.32 9.66 33 10 C25.59353142 17.08004367 18.13338866 23.92497146 9.97216797 30.13208008 C6.91391082 32.46286087 3.97655469 34.87121953 1.09765625 37.421875 C-2.86558171 40.92314625 -6.97633111 44.17844677 -11.1875 47.375 C-11.92581055 47.93662842 -12.66412109 48.49825684 -13.42480469 49.0769043 C-34.65121575 65.12977916 -57.69692731 78.19021516 -81.26782227 90.46337891 C-103.97017252 102.30534361 -125.58987241 115.98712002 -147 130 C-147.6379248 130.41749512 -148.27584961 130.83499023 -148.93310547 131.26513672 C-167.89042418 143.7075737 -186.23559763 157.04725952 -204.31591797 170.7265625 C-205.530031 171.64462768 -206.74534945 172.56109951 -207.96142578 173.4765625 C-217.5616267 180.70956009 -226.91469271 188.13033242 -236 196 C-236.68835938 196.57621094 -237.37671875 197.15242187 -238.0859375 197.74609375 C-247.11829105 205.38738863 -255.66074066 213.99666611 -263.3046875 223.0234375 C-265.4362317 225.50860194 -267.65683599 227.90440146 -269.875 230.3125 C-274.79663567 235.71138519 -279.43321633 241.29985397 -284 247 C-284.96679688 248.19882812 -284.96679688 248.19882812 -285.953125 249.421875 C-298.96955551 265.61304466 -311.85645173 281.93205492 -323.75488281 298.96704102 C-326.65975181 303.12189273 -329.62447529 307.21020485 -332.6875 311.25 C-339.59036021 320.37518391 -345.94262935 329.87189705 -352.26269531 339.40454102 C-355.02019802 343.55632879 -357.83380263 347.66387161 -360.6875 351.75 C-364.61872308 357.40712589 -368.34362481 363.16262909 -372 369 C-373.95618428 372.10552367 -375.91567222 375.20895899 -377.875 378.3125 C-378.39465332 379.13669434 -378.91430664 379.96088867 -379.44970703 380.81005859 C-382.14022296 385.07333626 -384.84686029 389.32475659 -387.58911133 393.55493164 C-395.15732494 405.23443977 -402.16067627 417.24011699 -409.1875 429.25 C-410.06088013 430.74055908 -410.06088013 430.74055908 -410.9519043 432.26123047 C-414.75352397 438.7784473 -418.4235867 445.35657834 -422 452 C-423.918125 452.0928125 -423.918125 452.0928125 -425.875 452.1875 C-426.59429687 452.22230469 -427.31359375 452.25710938 -428.0546875 452.29296875 C-428.69664062 452.19628906 -429.33859375 452.09960938 -430 452 C-434.29146914 445.56279629 -434.33444106 437.84724093 -434.25 430.3125 C-434.23876099 428.95608398 -434.23876099 428.95608398 -434.22729492 427.57226562 C-433.96718147 410.70412649 -431.95711928 394.77422972 -427.64794922 378.46435547 C-426.80728167 375.26703135 -426.0147513 372.05863676 -425.22216797 368.84912109 C-424.4919083 365.89673796 -423.74646371 362.94832315 -423 360 C-422.67 360 -422.34 360 -422 360 C-421.92483154 360.87624023 -421.84966309 361.75248047 -421.7722168 362.65527344 C-421.48351248 365.96609879 -421.18607394 369.27591456 -420.88305664 372.58544922 C-420.75465396 374.00669539 -420.62954728 375.42824396 -420.50805664 376.85009766 C-419.74135383 385.79180866 -418.51463744 394.34841303 -416 403 C-415.34 403 -414.68 403 -414 403 C-414.33 402.34 -414.66 401.68 -415 401 C-416.42681083 382.48885154 -414.84719505 364.30437258 -408 347 C-407.67 347 -407.34 347 -407 347 C-407.0714624 347.63526611 -407.1429248 348.27053223 -407.21655273 348.92504883 C-407.9984012 356.53117117 -408.11827627 364.0461508 -408.0625 371.6875 C-408.05798828 372.87794922 -408.05347656 374.06839844 -408.04882812 375.29492188 C-408.03717452 378.19666936 -408.02081559 381.09830626 -408 384 C-407.34 384 -406.68 384 -406 384 C-406.03480469 383.42636719 -406.06960938 382.85273438 -406.10546875 382.26171875 C-406.5122839 369.49547195 -403.89329513 356.77223271 -400.62207031 344.48608398 C-398.9666332 338.1694888 -397.74028481 331.78416346 -396.5 325.375 C-391.73675477 301.06777367 -391.73675477 301.06777367 -386 292 C-385.566875 290.948125 -385.13375 289.89625 -384.6875 288.8125 C-373.79629381 262.98152406 -350.82442773 240.80408941 -331.3125 221.1875 C-330.69971191 220.57003906 -330.08692383 219.95257813 -329.45556641 219.31640625 C-325.12314609 215 -325.12314609 215 -324 215 C-323.98541748 215.648479 -323.97083496 216.29695801 -323.95581055 216.96508789 C-323.66480904 228.57944116 -323.32434956 239.84148225 -320.62109375 251.171875 C-320 254 -320 254 -320 258 C-319.34 258 -318.68 258 -318 258 C-317.67 259.65 -317.34 261.3 -317 263 C-316.34 263 -315.68 263 -315 263 C-315.2165625 261.78957031 -315.2165625 261.78957031 -315.4375 260.5546875 C-320.05433888 230.35286647 -318.79371305 194.90355298 -300.03515625 169.3203125 C-294.9200676 162.93801383 -289.35547645 156.96377468 -283.7734375 150.9921875 C-281.62367954 148.68733679 -279.54242036 146.3385893 -277.5 143.9375 C-270.33537244 135.66927455 -262.36241579 128.04124418 -254 121 C-253.02417969 120.15824219 -252.04835938 119.31648438 -251.04296875 118.44921875 C-239.31264317 108.35876828 -226.93012492 99.47588114 -214 91 C-213.01 90.34 -212.02 89.68 -211 89 C-210.01 89.33 -209.02 89.66 -208 90 C-208.67675781 91.51787109 -208.67675781 91.51787109 -209.3671875 93.06640625 C-214.22807272 104.44750355 -215.6782454 115.75723741 -216 128 C-215.87061035 127.4330542 -215.7412207 126.8661084 -215.60791016 126.28198242 C-213.09437582 115.56008637 -210.22795811 105.39762137 -205.0625 95.625 C-204.47106201 94.4961438 -204.47106201 94.4961438 -203.86767578 93.34448242 C-194.63414529 76.67148186 -178.13012781 69.70258219 -162 61 C-160.74509766 60.3201001 -160.74509766 60.3201001 -159.46484375 59.62646484 C-157.10453189 58.34952116 -154.74070384 57.07942154 -152.375 55.8125 C-151.65876465 55.42594238 -150.9425293 55.03938477 -150.20458984 54.64111328 C-145.23286761 52 -145.23286761 52 -143 52 C-144.09038212 57.65016188 -145.60098766 63.04887278 -147.4375 68.5 C-147.65792969 69.15693848 -147.87835938 69.81387695 -148.10546875 70.49072266 C-149.00363184 73.14468829 -149.91800834 75.78633529 -150.921875 78.40234375 C-153.65508288 85.66765653 -154.19995015 93.32893382 -155 101 C-154.34 101 -153.68 101 -153 101 C-152.76539063 100.05382812 -152.53078125 99.10765625 -152.2890625 98.1328125 C-150.85643756 93.13744253 -148.62253378 88.54733784 -146.375 83.875 C-145.92987061 82.94574707 -145.48474121 82.01649414 -145.02612305 81.05908203 C-141.45345853 73.71197248 -137.4747828 66.83935224 -133 60 C-132.43925781 59.08476563 -131.87851562 58.16953125 -131.30078125 57.2265625 C-128.10783132 52.03150643 -124.68963358 47.02405767 -121.0625 42.125 C-120.29035156 41.07570312 -119.51820313 40.02640625 -118.72265625 38.9453125 C-113.59078334 32.87026862 -105.87640496 29.81717951 -98.75 26.6875 C-97.96109375 26.32849609 -97.1721875 25.96949219 -96.359375 25.59960938 C-95.2146875 25.09204102 -95.2146875 25.09204102 -94.046875 24.57421875 C-93.36463867 24.27088623 -92.68240234 23.96755371 -91.97949219 23.6550293 C-90 23 -90 23 -86 23 C-86 22.34 -86 21.68 -86 21 C-62.463331 12.64141039 -62.463331 12.64141039 -52.40234375 9.92578125 C-49.93671345 9.2548807 -47.50568791 8.54799851 -45.06640625 7.79296875 C-30.79252634 3.46545958 -14.97830858 -0.30394708 0 0 Z " fill="#030204" transform="translate(536,64)"/>
<path d="M0 0 C0.66 0.33 1.32 0.66 2 1 C-6.34790094 8.14630914 -14.95620771 14.84134551 -23.79345703 21.36865234 C-26.09428927 23.06971021 -28.38912625 24.77865023 -30.68359375 26.48828125 C-38.85113237 32.5580643 -47.07690873 38.50874575 -55.49291992 44.22973633 C-59.3211326 46.83350356 -63.08714012 49.49945141 -66.8125 52.25 C-70.14670535 54.69962026 -73.51970895 57.01117046 -77.0234375 59.2109375 C-83.33103557 63.19835962 -89.57275056 67.28247875 -95.8125 71.375 C-102.75348051 75.92296988 -109.69486337 80.46917186 -116.6875 84.9375 C-139.32629378 99.45525228 -161.13561476 115.01900288 -182 132 C-183.28197266 133.03833984 -183.28197266 133.03833984 -184.58984375 134.09765625 C-197.94769124 144.96408312 -210.9938821 156.15045329 -223.61328125 167.8671875 C-225.70178431 169.80494947 -227.80250753 171.7240831 -229.91796875 173.6328125 C-237.44980855 180.4582314 -244.68048275 187.57265784 -251.875 194.75 C-252.37336365 195.24577545 -252.87172729 195.7415509 -253.38519287 196.25234985 C-258.60984086 201.45558094 -263.75712007 206.68411939 -268.52416992 212.31591797 C-270.08366665 214.09547272 -271.73199869 215.73575886 -273.4375 217.375 C-276.88880906 220.7650885 -279.79869481 224.47224886 -282.77734375 228.27734375 C-285.1753722 231.21482324 -287.71975497 233.98634982 -290.3125 236.75 C-294.86558349 241.61930287 -299.01177164 246.71707047 -303.08081055 251.99462891 C-305.65249531 255.31986852 -308.28788491 258.51821852 -311.125 261.625 C-314.9261891 265.81248881 -318.27860713 270.26541968 -321.63671875 274.8125 C-324.87990185 279.18677671 -328.21254957 283.4888701 -331.54296875 287.796875 C-336.36603817 294.06488858 -341.06583213 300.4124452 -345.625 306.875 C-346.13788574 307.60187012 -346.65077148 308.32874023 -347.17919922 309.07763672 C-352.44510944 316.57766672 -357.52061486 324.20024163 -362.57275391 331.84521484 C-364.38506554 334.5813528 -366.21165642 337.30778277 -368.03857422 340.03417969 C-374.66680755 349.93715152 -381.01798638 359.95474777 -387.02514648 370.24731445 C-390.13408557 375.56365288 -393.33012572 380.82049113 -396.5625 386.0625 C-401.59849275 394.25418079 -406.40548105 402.55287386 -411 411 C-411.75603516 412.38445312 -411.75603516 412.38445312 -412.52734375 413.796875 C-415.38135698 419.24465709 -417.27093112 424.69899047 -418.91015625 430.62890625 C-420 433 -420 433 -421.82421875 433.9609375 C-424.58874151 434.01056987 -426.27017086 433.26594649 -428.75 432.0625 C-429.54921875 431.68222656 -430.3484375 431.30195312 -431.171875 430.91015625 C-431.77515625 430.60980469 -432.3784375 430.30945313 -433 430 C-431.58168435 425.19102351 -429.49575885 421.0074962 -427 416.6875 C-426.60409668 415.99309814 -426.20819336 415.29869629 -425.80029297 414.58325195 C-422.54175682 408.88815849 -419.22030269 403.22951041 -415.87963867 397.58227539 C-413.13398287 392.94054495 -410.42639428 388.27855005 -407.73828125 383.60327148 C-403.95420174 377.02584151 -400.13946256 370.49994472 -396.0078125 364.1328125 C-392.56235661 358.7568288 -389.23135881 353.30934511 -385.88134766 347.87353516 C-379.49416232 337.52578815 -372.93455507 327.30440462 -366.1875 317.1875 C-365.13864624 315.61427979 -365.13864624 315.61427979 -364.06860352 314.00927734 C-359.51783109 307.20806524 -354.88066795 300.48577176 -350.07421875 293.86328125 C-348.26602224 291.36722091 -346.50024554 288.84927563 -344.75 286.3125 C-332.15063972 268.27116251 -318.72666102 250.77308333 -304.91796875 233.64453125 C-302.93658835 231.18189218 -300.9834777 228.70024214 -299.05078125 226.19921875 C-294.84867265 220.76487019 -290.70783724 215.47321888 -285.7109375 210.734375 C-283.63560465 208.63061293 -281.84027736 206.37481876 -280 204.0625 C-270.34098611 192.12221147 -259.39380172 181.30381842 -248.5625 170.4375 C-247.63928955 169.5096167 -246.7160791 168.5817334 -245.76489258 167.62573242 C-240.67027024 162.54309418 -235.48439243 157.65837977 -230 153 C-228.99047314 152.12287011 -227.98133049 151.24529774 -226.97265625 150.3671875 C-219.48988731 143.95912497 -211.77127653 137.93079235 -203.91796875 131.984375 C-200.94246695 129.72869603 -198.01715095 127.42467565 -195.125 125.0625 C-181.32282409 113.94602668 -166.70024864 103.87915035 -152 94 C-151.20609863 93.46568359 -150.41219727 92.93136719 -149.59423828 92.38085938 C-147.23148819 90.79256892 -144.86650795 89.20768523 -142.5 87.625 C-141.80704834 87.1614209 -141.11409668 86.6978418 -140.40014648 86.22021484 C-130.78088159 79.81803047 -120.98436001 73.7332315 -111.0625 67.8125 C-109.98000977 67.16466553 -108.89751953 66.51683105 -107.78222656 65.84936523 C-104.52220077 63.89837623 -101.26113337 61.94913692 -98 60 C-94.41577899 57.85564604 -90.83241611 55.70986787 -87.25 53.5625 C-86.43426514 53.07354248 -85.61853027 52.58458496 -84.77807617 52.08081055 C-79.19923535 48.73190343 -73.64642994 45.34438571 -68.1171875 41.9140625 C-61.11329121 37.61342443 -54.04201333 33.42654764 -46.95947266 29.25708008 C-37.91296949 23.93068642 -28.906934 18.55722392 -20 13 C-18.60037962 12.13262012 -17.20063184 11.26544579 -15.80078125 10.3984375 C-14.34620432 9.49503289 -12.89177554 8.59138969 -11.4375 7.6875 C-10.417771 7.05581909 -10.417771 7.05581909 -9.37744141 6.41137695 C-6.14430634 4.39523583 -2.99970151 2.35854394 0 0 Z " fill="#09080A" transform="translate(544,105)"/>
<path d="M0 0 C2.0625 2.25 2.0625 2.25 2.0625 6.25 C-7.60536902 9.35242393 -17.34403332 10.38615245 -27.38647461 11.40405273 C-36.24205469 12.3157313 -44.39109946 13.72639003 -52.92407227 16.34692383 C-56.54104962 17.43087418 -60.01752887 18.06694906 -63.75 18.625 C-79.20298758 21.1498314 -94.53498591 24.82763541 -109.31860352 29.99487305 C-115.09310437 32.0092032 -120.92400058 33.72561584 -126.8125 35.375 C-141.09463259 39.28475124 -141.09463259 39.28475124 -154.62109375 45.18359375 C-158.3878251 46.91768761 -162.33968124 48.11546908 -166.28149414 49.38330078 C-170.95284394 50.89253316 -175.47664514 52.61123082 -179.984375 54.55078125 C-181.9375 55.25 -181.9375 55.25 -184.9375 55.25 C-184.9375 55.91 -184.9375 56.57 -184.9375 57.25 C-185.48051758 57.46615967 -186.02353516 57.68231934 -186.58300781 57.9050293 C-191.88098508 60.01536408 -197.17585687 62.13330054 -202.46777344 64.25878906 C-204.45920481 65.0580389 -206.45203942 65.85379189 -208.4453125 66.6484375 C-214.8588619 69.25230361 -221.0137939 72.23971796 -227.1875 75.3671875 C-237.39761291 80.52081214 -247.79212981 85.26648316 -258.3125 89.75 C-259.1274292 90.10054443 -259.9423584 90.45108887 -260.78198242 90.81225586 C-261.5422876 91.13202393 -262.30259277 91.45179199 -263.0859375 91.78125 C-264.09406494 92.20760742 -264.09406494 92.20760742 -265.12255859 92.64257812 C-266.9375 93.25 -266.9375 93.25 -269.9375 93.25 C-269.9375 93.91 -269.9375 94.57 -269.9375 95.25 C-280.0614434 99.12913071 -290.24439681 102.79224739 -300.51391602 106.26953125 C-305.35777622 107.92848644 -310.06720506 109.71833059 -314.7578125 111.7734375 C-321.35754779 114.56797289 -328.09292971 116.20791312 -335.0625 117.8125 C-344.51096997 119.91592153 -344.51096997 119.91592153 -353.56640625 123.2421875 C-361.50670041 126.6007348 -370.29356819 127.45140826 -378.75 128.8125 C-380.6024098 129.11860898 -382.45470456 129.42541498 -384.30688477 129.73291016 C-414.91747992 134.78473575 -414.91747992 134.78473575 -428.95336914 135.97314453 C-430.93484323 136.04647567 -430.93484323 136.04647567 -431.9375 137.25 C-444.50171239 139.34661956 -457.55042004 139.45325308 -470.25 139.5 C-472.0913855 139.51365601 -472.0913855 139.51365601 -473.9699707 139.52758789 C-475.11038818 139.52364014 -476.25080566 139.51969238 -477.42578125 139.515625 C-478.95005737 139.51224121 -478.95005737 139.51224121 -480.50512695 139.50878906 C-482.9375 139.25 -482.9375 139.25 -484.9375 137.25 C-484.75 134.75 -484.75 134.75 -483.9375 132.25 C-480.93335567 130.24723711 -480.15447787 129.97848038 -476.75512695 129.79516602 C-475.91101761 129.74480698 -475.06690826 129.69444794 -474.19721985 129.64256287 C-473.28264511 129.59680618 -472.36807037 129.5510495 -471.42578125 129.50390625 C-469.46223665 129.389536 -467.4986951 129.27511343 -465.53515625 129.16064453 C-464.50793457 129.10410706 -463.48071289 129.04756958 -462.42236328 128.98931885 C-439.42825929 127.70769042 -417.09189514 125.97816062 -394.65234375 120.57421875 C-388.34769998 119.07458657 -381.99387655 117.87895963 -375.625 116.6875 C-368.12179799 115.2695547 -360.63130525 113.83088938 -353.1875 112.125 C-351.91390625 111.83367187 -350.6403125 111.54234375 -349.328125 111.2421875 C-345.95331058 110.36876738 -345.95331058 110.36876738 -343.10498047 108.8046875 C-340.03450519 107.29761285 -337.15426196 106.30667141 -333.8671875 105.3828125 C-332.7225 105.05410156 -331.5778125 104.72539063 -330.3984375 104.38671875 C-328.03156333 103.71894052 -325.66438164 103.05225117 -323.296875 102.38671875 C-316.5999374 100.46153646 -310.22305508 98.2401662 -303.82666016 95.47705078 C-299.18220851 93.50451284 -294.43787023 91.82251931 -289.6875 90.125 C-287.82799364 89.45609424 -285.96861635 88.78682951 -284.109375 88.1171875 C-282.79743164 87.64684082 -282.79743164 87.64684082 -281.45898438 87.16699219 C-279.09221977 86.30626718 -276.74113611 85.41177372 -274.390625 84.5078125 C-270.9375 83.25 -270.9375 83.25 -268.9375 83.25 C-268.9375 82.59 -268.9375 81.93 -268.9375 81.25 C-268.28378418 80.98372803 -267.63006836 80.71745605 -266.95654297 80.44311523 C-255.86692041 75.91230145 -244.85876098 71.40356477 -234.21484375 65.89453125 C-229.86736259 63.71301806 -225.42529154 61.79272458 -220.95800781 59.87207031 C-216.48534536 57.94416151 -212.08226325 55.91227313 -207.6875 53.8125 C-199.45512511 49.90422315 -190.98879055 46.60892808 -182.50927734 43.28173828 C-179.70695553 42.15751083 -176.93113924 40.97798883 -174.15234375 39.796875 C-167.75712159 37.12032773 -161.25154991 34.84880196 -154.6875 32.625 C-152.45279851 31.8629359 -150.21841549 31.09993719 -147.984375 30.3359375 C-146.41478027 29.79936523 -146.41478027 29.79936523 -144.81347656 29.25195312 C-142.3914149 28.40813809 -139.98990437 27.53122031 -137.59375 26.6171875 C-124.90834056 21.87371175 -111.61122897 18.84846632 -98.47167969 15.66113281 C-97.31055664 15.3772168 -96.14943359 15.09330078 -94.953125 14.80078125 C-93.91446289 14.54981689 -92.87580078 14.29885254 -91.80566406 14.0402832 C-88.96485658 13.31855394 -88.96485658 13.31855394 -86.45043945 12.23413086 C-83.55532612 11.10033101 -80.77133109 10.52398998 -77.71484375 9.953125 C-76.4707373 9.71940186 -75.22663086 9.48567871 -73.94482422 9.24487305 C-72.58827835 8.99624242 -71.23166851 8.74796058 -69.875 8.5 C-68.46890329 8.23939026 -67.06281624 7.97872845 -65.65673828 7.71801758 C-50.27732474 4.88542685 -34.8485941 2.33983254 -19.41552734 -0.1809082 C-17.17617699 -0.54732163 -14.93808358 -0.92154613 -12.70166016 -1.30541992 C-7.83407275 -2.08830958 -4.34179689 -2.5866024 0 0 Z " fill="#0C0B0D" transform="translate(584.9375,474.75)"/>
<path d="M0 0 C4.68803656 0.73048301 8.90885555 2.36636885 13.3125 4.0625 C14.42334961 4.48499023 14.42334961 4.48499023 15.55664062 4.91601562 C17.37242655 5.60718575 19.18639899 6.30311689 21 7 C19.8813452 12.87101488 18.71553025 18.73031353 17.49511719 24.58105469 C17.09820243 26.52022203 16.73493188 28.46626291 16.3828125 30.4140625 C15.08630528 36.29274592 15.08630528 36.29274592 12.1640625 38.1953125 C10.64171567 38.83095907 9.09766539 39.41634328 7.5390625 39.95703125 C-0.06721789 43.0814572 -5.99128331 49.67319997 -11 56 C-12.13882265 52.58353204 -11.71934532 51.44992145 -11 48 C-10.88198646 45.64796264 -10.82488151 43.29246362 -10.8125 40.9375 C-10.80460449 40.27411621 -10.79670898 39.61073242 -10.78857422 38.92724609 C-10.79773127 34.6916017 -11.445275 31.16737524 -12.625 27.125 C-14.16699205 19.5288781 -9.54389023 13.79586216 -5.55078125 7.6875 C-3.76848434 5.07181123 -1.94518993 2.49817034 0 0 Z " fill="#070608" transform="translate(95,557)"/>
<path d="M0 0 C5.17152008 0.4082779 9.00424 2.36596112 13.51953125 4.72265625 C16.62060161 6.3195854 19.77740657 7.6689288 23 9 C21.375 16.75 21.375 16.75 18 19 C15.14453125 18.2421875 15.14453125 18.2421875 11.8125 16.875 C10.66007812 16.40449219 9.50765625 15.93398438 8.3203125 15.44921875 C4.46135387 13.76489681 0.7206748 11.96976901 -3 10 C-2.49287967 6.28111761 -1.88391785 3.26545761 0 0 Z " fill="#0C0B0D" transform="translate(101,539)"/>
<path d="M0 0 C2.5625 0.3125 2.5625 0.3125 4.4375 1.5 C5.5625 3.3125 5.5625 3.3125 5.3125 5.9375 C4.5625 8.3125 4.5625 8.3125 3.5625 9.3125 C0.625 9.5 0.625 9.5 -2.4375 9.3125 C-4.4375 7.3125 -4.4375 7.3125 -4.6875 4.8125 C-4.34234788 1.3609788 -3.44095645 0.44114826 0 0 Z " fill="#E7E7E7" transform="translate(96.4375,579.6875)"/>
<path d="M0 0 C1.69867188 0.14777936 3.40177489 0.24747066 5.10546875 0.31640625 C6.57983398 0.37924805 6.57983398 0.37924805 8.08398438 0.44335938 C9.62022461 0.50233398 9.62022461 0.50233398 11.1875 0.5625 C12.74114258 0.62727539 12.74114258 0.62727539 14.32617188 0.69335938 C16.8839819 0.79944366 19.44188845 0.90150146 22 1 C22 1.33 22 1.66 22 2 C21.21351074 2.02505615 20.42702148 2.0501123 19.61669922 2.07592773 C16.03598506 2.19232866 12.4555055 2.31485487 8.875 2.4375 C7.6375 2.47681641 6.4 2.51613281 5.125 2.55664062 C3.32675781 2.61948242 3.32675781 2.61948242 1.4921875 2.68359375 C0.39245605 2.72025146 -0.70727539 2.75690918 -1.84033203 2.79467773 C-4.9524332 2.996909 -7.93172509 3.45545228 -11 4 C-13.67810075 4.11196073 -16.31732686 4.04625299 -19 4 C-15.74904974 1.83269982 -13.28784815 1.18694693 -9.5 0.3125 C-7.78296875 -0.09548828 -7.78296875 -0.09548828 -6.03125 -0.51171875 C-3 -1 -3 -1 0 0 Z " fill="#E2E2E2" transform="translate(302,330)"/>
<path d="M0 0 C1.98 0 3.96 0 6 0 C6 0.66 6 1.32 6 2 C27.01628198 1.31286792 27.01628198 1.31286792 48 0 C40.65325816 4.8978279 29.35943584 3.21678409 20.73852539 3.24023438 C18.54211614 3.25009148 16.34658745 3.28128254 14.15039062 3.3125 C12.74740131 3.31901823 11.34440542 3.32427331 9.94140625 3.328125 C8.68013916 3.3374707 7.41887207 3.34681641 6.11938477 3.35644531 C3 3 3 3 1.06616211 1.47949219 C0.71432861 0.99125977 0.36249512 0.50302734 0 0 Z " fill="#626263" transform="translate(485,189)"/>
<path d="M0 0 C0.66 0.33 1.32 0.66 2 1 C0.08435828 2.60540415 -1.83246912 4.209355 -3.75 5.8125 C-4.55824219 6.49022461 -4.55824219 6.49022461 -5.3828125 7.18164062 C-6.91554983 8.46203705 -8.45757253 9.73129347 -10 11 C-10.72703125 11.62261719 -11.4540625 12.24523437 -12.203125 12.88671875 C-12.79609375 13.25410156 -13.3890625 13.62148437 -14 14 C-14.99 13.67 -15.98 13.34 -17 13 C-13.50164156 9.29394681 -9.99149936 6.47800508 -5.6875 3.6875 C-4.08455078 2.64142578 -4.08455078 2.64142578 -2.44921875 1.57421875 C-1.64097656 1.05472656 -0.83273437 0.53523438 0 0 Z " fill="#212022" transform="translate(544,105)"/>
<path d="M0 0 C0.66 0.33 1.32 0.66 2 1 C2 1.99 2 2.98 2 4 C-4.74153283 5.25841946 -11.13484138 6.26404456 -18 6 C-18 5.67 -18 5.34 -18 5 C-16.95199219 4.72285156 -15.90398438 4.44570312 -14.82421875 4.16015625 C-13.44529933 3.79432048 -12.0663938 3.42843233 -10.6875 3.0625 C-9.65206055 2.78889648 -9.65206055 2.78889648 -8.59570312 2.50976562 C-5.70112156 1.7406739 -2.84215271 0.94738424 0 0 Z " fill="#D5D5D5" transform="translate(543,154)"/>
<path d="M0 0 C0.33 0.66 0.66 1.32 1 2 C-1.18652739 2.33965474 -3.37428025 2.67142477 -5.5625 3 C-7.38974609 3.2784375 -7.38974609 3.2784375 -9.25390625 3.5625 C-12.87627848 3.98555077 -16.35712046 4.07501425 -20 4 C-16.76393248 2.21860706 -13.57342755 1.22819081 -10 0.3125 C-8.96875 0.04050781 -7.9375 -0.23148438 -6.875 -0.51171875 C-4.09862992 -0.983249 -2.57653765 -1.07952156 0 0 Z " fill="#C5C5C5" transform="translate(495,252)"/>
<path d="M0 0 C0.66 0.33 1.32 0.66 2 1 C-3.94 6.445 -3.94 6.445 -10 12 C-10.66 11.34 -11.32 10.68 -12 10 C-10.69522778 6.08568335 -9.01326694 5.42187412 -5.5625 3.25 C-4.57378906 2.61578125 -3.58507812 1.9815625 -2.56640625 1.328125 C-1.29603516 0.67070313 -1.29603516 0.67070313 0 0 Z " fill="#2D2D2E" transform="translate(567,73)"/>
<path d="M0 0 C0.66 0.33 1.32 0.66 2 1 C1.34 1.66 0.68 2.32 0 3 C0.33 3.66 0.66 4.32 1 5 C-2.465 6.485 -2.465 6.485 -6 8 C-6 7.34 -6 6.68 -6 6 C-6.66 5.67 -7.32 5.34 -8 5 C-6.71475739 4.13619741 -5.42157581 3.28419631 -4.125 2.4375 C-3.04605469 1.72400391 -3.04605469 1.72400391 -1.9453125 0.99609375 C-1.30335938 0.66738281 -0.66140625 0.33867187 0 0 Z " fill="#DCDCDC" transform="translate(495,131)"/>
<path d="M0 0 C0.66 0.33 1.32 0.66 2 1 C0.515 2.485 0.515 2.485 -1 4 C-0.67 4.66 -0.34 5.32 0 6 C-3.3 6.66 -6.6 7.32 -10 8 C-6.66666667 5.33333333 -3.33333333 2.66666667 0 0 Z " fill="#D0D0D0" transform="translate(556,124)"/>
<path d="M0 0 C0 0.66 0 1.32 0 2 C-6.435 2.495 -6.435 2.495 -13 3 C-8.83099908 0.22066605 -4.8978425 -1.63261417 0 0 Z " fill="#C9C9C9" transform="translate(485,266)"/>
<path d="M0 0 C0.33 0 0.66 0 1 0 C0.67 3.63 0.34 7.26 0 11 C-0.99 11 -1.98 11 -3 11 C-2.32829194 7.1936543 -1.27253436 3.64793184 0 0 Z " fill="#3B3A3B" transform="translate(128,411)"/>
<path d="M0 0 C0 0.33 0 0.66 0 1 C-6.435 1.495 -6.435 1.495 -13 2 C-13.33 1.34 -13.66 0.68 -14 0 C-9.20699867 -1.39151652 -4.84864218 -0.68662689 0 0 Z " fill="#302F30" transform="translate(479,269)"/>
<path d="M0 0 C-1.28913487 0.67154933 -2.58140204 1.33708859 -3.875 2 C-4.59429687 2.37125 -5.31359375 2.7425 -6.0546875 3.125 C-8 4 -8 4 -10 4 C-9.67 2.68 -9.34 1.36 -9 0 C-3.375 -1.125 -3.375 -1.125 0 0 Z " fill="#2B2B2C" transform="translate(516,251)"/>
<path d="M0 0 C-3.21451269 1.60725635 -6.43612536 1.05748185 -10 1 C-10 0.34 -10 -0.32 -10 -1 C-5.92224809 -1.9267618 -3.57818963 -2.33958553 0 0 Z " fill="#504F50" transform="translate(527,161)"/>
<path d="M0 0 C0.66 0.33 1.32 0.66 2 1 C-1.96 4.465 -1.96 4.465 -6 8 C-6.99 7.34 -7.98 6.68 -9 6 C-6.03 4.02 -3.06 2.04 0 0 Z " fill="#606060" transform="translate(544,105)"/>
<path d="M0 0 C0.66 0.33 1.32 0.66 2 1 C2 1.99 2 2.98 2 4 C-0.31 4 -2.62 4 -5 4 C-5 3.34 -5 2.68 -5 2 C-2.625 0.9375 -2.625 0.9375 0 0 Z " fill="#E0E0E0" transform="translate(543,154)"/>
<path d="M0 0 C0.33 0.66 0.66 1.32 1 2 C-0.65 4.31 -2.3 6.62 -4 9 C-4.66 8.34 -5.32 7.68 -6 7 C-4.02 4.69 -2.04 2.38 0 0 Z " fill="#333334" transform="translate(546,70)"/>
<path d="M0 0 C-1.98 1.32 -3.96 2.64 -6 4 C-6.99 3.34 -7.98 2.68 -9 2 C-3.375 -1.125 -3.375 -1.125 0 0 Z " fill="#6E6E6E" transform="translate(345,408)"/>
<path d="M0 0 C0.66 0.33 1.32 0.66 2 1 C-0.97 3.475 -0.97 3.475 -4 6 C-4 5.34 -4 4.68 -4 4 C-4.66 3.67 -5.32 3.34 -6 3 C-4.03533587 1.93224776 -2.03144641 0.93446535 0 0 Z " fill="#525252" transform="translate(277,458)"/>
</svg>
