<svg version="1.1" id="Layer_1" xmlns="http://www.w3.org/2000/svg" xmlns:xlink="http://www.w3.org/1999/xlink" x="0px" y="0px"
	 width="100%" viewBox="0 0 656 672" enable-background="new 0 0 656 672" xml:space="preserve">
<path fill="#000000" opacity="1.000000" stroke="none" 
	d="
M98.531342,1.000000 
	C94.854630,3.275348 90.100365,3.122814 85.665993,4.265415 
	C61.964546,10.372540 42.257908,22.446524 26.507418,41.392799 
	C14.081454,56.340004 6.734902,73.402100 2.535388,92.097153 
	C2.067453,94.180275 2.952209,96.466904 1.277558,98.699570 
	C1.000000,66.406403 1.000000,33.812801 1.000000,1.000000 
	C33.353897,1.000000 65.708290,1.000000 98.531342,1.000000 
z"/>
<path fill="#000000" opacity="1.000000" stroke="none" 
	d="
M1.000000,584.468628 
	C3.320167,589.138428 3.481640,594.807495 4.997947,600.165161 
	C13.714499,630.963928 32.246326,653.781982 60.242294,669.072449 
	C62.128162,670.102539 63.961258,671.229187 65.909439,672.655518 
	C44.395058,673.000000 22.790117,673.000000 1.000000,673.000000 
	C1.000000,643.646057 1.000000,614.291687 1.000000,584.468628 
z"/>
<path fill="#000000" opacity="1.000000" stroke="none" 
	d="
M657.000000,58.531342 
	C650.892334,49.997379 645.113403,40.775017 637.170959,33.142914 
	C619.467102,16.130939 598.690674,5.479500 574.275452,2.140477 
	C573.963318,2.097795 573.675964,1.874590 573.188477,1.367823 
	C600.913452,1.000000 628.826965,1.000000 657.000000,1.000000 
	C657.000000,20.020107 657.000000,39.041397 657.000000,58.531342 
z"/>
<path fill="#000000" opacity="1.000000" stroke="none" 
	d="
M604.468628,673.000000 
	C610.183167,668.829285 617.158325,666.007751 623.196594,661.566895 
	C636.882568,651.501770 648.025635,639.187927 656.752197,624.232544 
	C657.000000,640.262939 657.000000,656.525940 657.000000,673.000000 
	C639.646362,673.000000 622.291809,673.000000 604.468628,673.000000 
z"/>
<path fill="#000000" opacity="1.000000" stroke="none" 
	d="
M492.227417,279.270081 
	C470.603851,296.510162 445.797638,306.582611 420.157898,314.782379 
	C398.892578,321.583221 377.229584,326.944672 354.909088,328.865692 
	C343.453827,329.851624 331.936768,329.406738 320.441925,328.878387 
	C313.000885,328.536346 305.669037,329.354462 298.620392,332.624847 
	C300.679260,332.624847 302.745087,332.735504 304.795929,332.607300 
	C320.881836,331.601685 336.572540,334.493805 352.395050,336.789215 
	C368.755615,339.162689 385.270447,337.940369 401.708740,336.296112 
	C410.106293,335.456146 418.464874,334.390961 426.360260,332.744141 
	C427.564240,333.840820 427.484619,334.705231 427.116272,335.449402 
	C416.352448,357.192902 401.900818,376.260437 379.376709,386.064423 
	C352.286224,397.855988 324.815552,409.353943 295.227264,413.883820 
	C284.783539,415.482727 274.245422,416.464935 262.771393,417.846588 
	C291.372467,418.904266 319.136200,421.326965 344.592407,407.373535 
	C345.948761,410.126648 344.490967,410.572021 343.645844,411.112274 
	C310.186829,432.500244 275.919861,452.370026 238.482803,466.134827 
	C222.288116,472.089264 205.010208,473.374512 188.347733,477.329834 
	C183.435379,478.495941 178.244446,479.036621 173.236221,483.050781 
	C183.622620,481.938385 192.717636,479.092316 202.149994,478.586456 
	C205.637817,478.399384 209.201202,477.658264 212.600861,478.120514 
	C229.793579,480.458069 245.075500,474.249146 260.283417,467.789581 
	C267.147064,464.874176 273.774841,461.403503 281.281097,457.816040 
	C280.415497,461.576599 277.848663,462.913879 275.821350,464.540710 
	C255.029709,481.224518 231.721741,492.985352 206.196365,500.652954 
	C191.705627,505.005829 176.619583,508.041840 163.262451,515.287170 
	C156.759125,518.814758 150.516403,519.417847 143.700592,519.209106 
	C142.554276,519.174072 141.351761,519.254822 140.337128,518.303467 
	C139.438492,516.333374 140.859741,514.844543 141.709366,513.335083 
	C161.009888,479.046204 181.754745,445.670837 204.875092,413.805664 
	C227.304382,382.892944 251.313919,353.273193 277.471802,325.426422 
	C297.793335,303.792816 319.116638,283.207611 341.755341,263.984589 
	C370.264832,239.776550 400.817047,218.499512 432.397003,198.478500 
	C461.522125,180.013840 489.010345,159.115845 516.349304,138.073334 
	C535.895630,123.028687 555.270691,107.797386 573.221985,90.847664 
	C575.753235,88.457664 577.623169,88.593658 579.817322,91.251144 
	C582.787659,94.848717 584.321777,98.986328 585.135681,103.469582 
	C585.808472,107.175217 584.438599,109.752472 581.181213,111.804214 
	C571.478271,117.915833 561.917786,124.253723 552.460754,130.834000 
	C563.632507,129.100571 573.574585,123.806473 584.618835,119.503799 
	C585.770020,125.954384 585.505676,131.703583 584.963562,137.390137 
	C584.738342,139.751617 582.081116,140.467911 580.178406,141.387650 
	C564.726074,148.857086 549.176208,156.085907 532.206482,159.561295 
	C531.754517,159.653870 531.352722,159.991333 530.309937,160.538849 
	C547.555298,158.305435 563.873352,154.991684 580.850830,148.941452 
	C578.954224,158.032425 575.939575,164.649109 569.136597,168.753952 
	C551.802979,179.212906 533.014221,185.617416 512.953247,188.354279 
	C507.921295,189.040771 502.928009,190.011093 497.975800,191.243988 
	C519.617004,192.466095 540.718567,189.232132 562.616943,182.516678 
	C558.191162,201.179535 549.382263,215.784439 537.922852,229.270020 
	C525.851074,243.476181 509.030670,248.157684 492.547760,254.321960 
	C496.780182,253.782104 501.001740,253.123093 505.248077,252.736008 
	C509.469055,252.351212 513.401306,250.064270 519.400269,250.773132 
	C506.984192,258.490570 494.764557,263.185852 482.131470,268.089752 
	C489.491180,267.360596 496.362427,266.679810 504.112762,265.911957 
	C501.590454,272.192230 496.763550,275.381226 492.227417,279.270081 
z"/>
<path fill="#000000" opacity="1.000000" stroke="none" 
	d="
M122.976227,503.907043 
	C121.225754,507.166443 119.472038,510.024414 118.131279,513.064514 
	C116.428734,516.924866 113.849411,518.731506 109.531624,518.159119 
	C105.220711,517.587646 105.098656,514.065369 104.449448,511.122833 
	C102.532524,502.434235 102.435318,493.585907 102.975922,484.761200 
	C104.119537,466.093201 107.617462,447.814514 112.532372,429.791138 
	C112.825783,428.715210 112.661896,427.431702 114.688187,426.513855 
	C116.349403,438.505463 116.326057,450.575745 120.620956,461.899780 
	C119.989639,444.917999 122.126022,428.514832 129.566299,413.017883 
	C130.676132,423.806366 126.725616,434.564484 130.277893,445.403748 
	C131.485428,438.006775 132.409103,430.549866 133.955536,423.224457 
	C138.038651,403.882782 140.643478,384.225464 147.071091,365.381927 
	C152.897827,348.299957 163.365387,334.179474 174.372513,320.321472 
	C185.486557,306.328796 198.275726,293.879456 210.687408,281.084656 
	C211.230804,280.524475 211.988586,280.172272 213.929306,278.847504 
	C214.489929,294.522308 213.157501,309.590088 219.734772,324.664001 
	C221.155914,321.433014 220.693832,319.232971 220.413391,317.118317 
	C217.027985,291.590820 219.872482,267.001648 231.381805,243.706192 
	C237.089264,232.154007 246.265808,223.259140 254.788864,213.968918 
	C275.369080,191.536224 298.059082,171.499985 324.071045,155.452118 
	C325.578918,154.521866 326.886597,153.041824 329.638489,153.459991 
	C326.654816,165.285492 321.950684,176.664001 321.655609,188.993164 
	C324.900848,180.116913 327.480560,171.022247 331.481445,162.457413 
	C336.311615,152.117416 342.775116,143.452393 353.388275,138.098755 
	C366.024597,131.724594 378.301453,124.638855 390.755615,117.901184 
	C392.173401,117.134155 393.508728,115.953423 395.980682,116.479561 
	C392.080170,130.764709 384.711975,144.131104 384.193848,159.746613 
	C386.716797,159.048080 386.910309,157.060287 387.656891,155.615189 
	C396.915314,137.694626 406.339600,119.884750 418.859192,103.922356 
	C421.191162,100.949112 423.914185,98.734322 427.289948,97.102837 
	C456.073029,83.192230 486.060272,72.843353 517.534119,67.136360 
	C523.933044,65.976074 530.484070,64.727715 538.222168,64.915047 
	C531.696167,76.302116 525.637573,86.873657 519.578979,97.445190 
	C519.908386,97.723351 520.237793,98.001518 520.567139,98.279678 
	C530.486145,89.495987 539.307800,79.528442 548.728638,70.207336 
	C549.170349,70.537437 549.612000,70.867538 550.053711,71.197639 
	C544.960999,79.167580 539.868286,87.137520 534.044739,96.251282 
	C548.182983,88.325317 560.033203,79.134514 572.943604,71.425819 
	C573.984558,73.668922 572.467285,74.344513 571.594604,75.106529 
	C539.311035,103.296700 506.307861,130.322205 467.742401,149.991501 
	C412.037720,178.402176 360.915588,214.008728 311.735901,252.445541 
	C293.535370,266.670319 277.968628,283.629272 263.109467,301.208954 
	C212.413055,361.187164 168.794586,426.131561 128.619339,493.475342 
	C126.658447,496.762268 124.971115,500.212402 122.976227,503.907043 
z"/>
<path fill="#000000" opacity="1.000000" stroke="none" 
	d="
M225.656464,357.694519 
	C247.923935,329.377075 270.724213,302.009247 296.016174,276.778503 
	C314.124329,258.714172 334.225159,243.063950 354.470947,227.579514 
	C407.831421,186.768204 466.841614,154.842133 523.990845,119.989975 
	C530.532043,116.000832 536.988708,111.873322 543.502930,107.839546 
	C544.832581,107.016243 546.244446,106.325813 547.892212,105.994804 
	C543.900818,111.239479 538.504456,114.800903 533.489136,118.762756 
	C494.996399,149.169800 453.433472,175.122650 412.661011,202.241608 
	C375.267029,227.113464 340.890076,255.751114 308.496552,286.898468 
	C266.422943,327.353516 229.260712,371.918274 195.534988,419.417938 
	C172.078262,452.454651 151.026199,487.028656 131.467026,522.500488 
	C128.995071,526.983521 127.401573,531.977661 125.663490,536.829041 
	C124.549248,539.939026 123.203346,541.148254 119.782509,539.629578 
	C110.475906,535.498047 109.632477,537.811401 115.356445,527.624390 
	C148.445190,468.735504 184.524368,411.787842 225.656464,357.694519 
z"/>
<path fill="#000000" opacity="1.000000" stroke="none" 
	d="
M344.377991,545.312256 
	C380.769958,528.256897 417.157623,512.174438 455.236603,500.295746 
	C481.762482,492.021027 508.647736,485.258453 536.071899,480.517365 
	C550.346558,478.049530 564.686401,476.194794 579.006958,474.132416 
	C580.302979,473.945801 581.725464,473.847565 582.960510,474.182739 
	C586.041626,475.018768 589.594360,476.024445 589.332764,480.010345 
	C589.097961,483.587982 585.585876,483.936340 582.845886,484.246338 
	C518.182434,491.562042 456.289276,509.071014 396.714935,534.980835 
	C371.526276,545.935730 346.570374,557.424500 321.445496,568.527588 
	C285.093536,584.592041 247.444214,596.585388 208.438568,604.319641 
	C177.710068,610.412598 146.781601,614.708557 115.414497,615.407471 
	C112.596443,615.470337 109.754936,616.152588 106.977524,615.917725 
	C103.931152,615.660217 100.738358,614.616394 100.872444,610.688049 
	C100.994209,607.120361 103.998108,606.174438 106.874489,605.820312 
	C111.161545,605.292419 115.486847,604.923645 119.804047,604.816528 
	C150.195648,604.062256 180.060272,599.198486 209.680313,592.864319 
	C256.478699,582.856506 300.905670,565.961060 344.377991,545.312256 
z"/>
<path fill="#000000" opacity="1.000000" stroke="none" 
	d="
M113.143951,583.901917 
	C112.606773,586.073669 111.944069,587.817139 111.751656,589.611084 
	C111.308281,593.744629 109.059990,595.888733 105.231133,597.430664 
	C97.823822,600.413757 92.195465,605.870056 87.164246,611.953857 
	C86.142563,613.189270 85.552986,614.913696 83.356010,615.320740 
	C82.749657,612.722717 84.141312,610.518005 84.662483,608.248657 
	C86.623894,599.707703 84.973732,591.409790 83.117821,583.149292 
	C82.642021,581.031494 82.695358,579.343201 83.836418,577.503784 
	C87.425804,571.717346 91.017967,565.927063 94.382423,560.009399 
	C95.956711,557.240356 97.729073,556.840576 100.507736,558.062500 
	C105.064735,560.066406 109.688232,561.941345 114.370613,563.629517 
	C117.253212,564.668884 117.602859,566.273254 116.808197,569.007507 
	C115.421013,573.780518 114.404121,578.661072 113.143951,583.901917 
M97.663757,581.670471 
	C97.198448,581.835632 96.696724,581.936646 96.274025,582.176758 
	C94.205299,583.351929 93.733215,585.169556 94.557755,587.259705 
	C95.227470,588.957336 96.597656,589.837341 98.492119,589.586548 
	C100.132042,589.369507 101.254601,588.415039 101.607658,586.813110 
	C102.208313,584.087646 101.112251,582.326599 97.663757,581.670471 
z"/>
<path fill="#000000" opacity="1.000000" stroke="none" 
	d="
M122.965019,557.001465 
	C121.549423,559.783936 119.682297,559.304199 117.702682,558.484314 
	C112.191879,556.201782 106.701065,553.866028 101.141068,551.709351 
	C98.529930,550.696533 97.561684,548.954163 99.147491,546.774963 
	C100.897842,544.369629 99.585419,538.443542 105.108002,540.187378 
	C111.404236,542.175537 117.392616,545.133240 123.530991,547.629761 
	C125.469742,548.418335 125.938065,549.724243 125.191452,551.585632 
	C124.513252,553.276489 123.826950,554.963989 122.965019,557.001465 
z"/>
</svg>